<svg xmlns="http://www.w3.org/2000/svg" id="Groupe_150" data-name="Groupe 150" width="157.662" height="31.417" viewBox="0 0 157.662 31.417"><g id="Groupe_147" data-name="Groupe 147" transform="translate(0 7.337)"><path id="Trac&#xE9;_148" data-name="Trac&#xE9; 148" d="M0,28.04H3.194V51.53H0Z" transform="translate(0 -27.745)" fill="#fff"></path><path id="Trac&#xE9;_149" data-name="Trac&#xE9; 149" d="M56.906,28.04V51.53H53.712V32.168L45.505,44.437H43.9L35.693,32.168V51.53H32.5V28.04h4.226L44.7,39.965,52.68,28.04Z" transform="translate(-23.653 -27.745)" fill="#fff"></path><path id="Trac&#xE9;_150" data-name="Trac&#xE9; 150" d="M142.994,75.7h8.371v2.588h-8.371Z" transform="translate(-104.072 -62.434)" fill="#fff"></path><path id="Trac&#xE9;_151" data-name="Trac&#xE9; 151" d="M200.476,28.04c3.161,0,5.569.786,7.256,2.342a8.23,8.23,0,0,1,2.506,6.29,8.18,8.18,0,0,1-2.506,6.29c-1.687,1.556-4.1,2.342-7.256,2.342h-3.342V51.53h-6.716V28.04Zm-.7,11.974a3.876,3.876,0,0,0,2.719-.95,3.268,3.268,0,0,0,0-4.767,3.821,3.821,0,0,0-2.719-.95h-2.654v6.667Z" transform="translate(-138.588 -27.745)" fill="#fff"></path><path id="Trac&#xE9;_152" data-name="Trac&#xE9; 152" d="M278.536,51.53l-.95-3.407h-8.239l-.967,3.407h-6.945l6.749-23.49h10.549L285.5,51.53Zm-7.683-8.7h5.209l-2.588-9.271Z" transform="translate(-190.274 -27.745)" fill="#fff"></path><path id="Trac&#xE9;_153" data-name="Trac&#xE9; 153" d="M367.025,41.8l5.93,2.785a10.862,10.862,0,0,1-4.439,4.734,13.2,13.2,0,0,1-6.732,1.72,13.376,13.376,0,0,1-6.356-1.491,11.186,11.186,0,0,1-4.472-4.259A12.022,12.022,0,0,1,349.3,39a12.122,12.122,0,0,1,1.654-6.307,11.255,11.255,0,0,1,4.472-4.242,13.373,13.373,0,0,1,6.356-1.491,13.2,13.2,0,0,1,6.732,1.72,10.861,10.861,0,0,1,4.439,4.734l-5.93,2.785a5.69,5.69,0,0,0-5.242-3.1,5.8,5.8,0,0,0-4.193,1.638,5.688,5.688,0,0,0-1.7,4.259,5.688,5.688,0,0,0,1.7,4.259,5.809,5.809,0,0,0,4.193,1.655A5.722,5.722,0,0,0,367.025,41.8Z" transform="translate(-254.224 -26.956)" fill="#fff"></path><path id="Trac&#xE9;_154" data-name="Trac&#xE9; 154" d="M459.919,28.04v5.307h-5.7V51.53h-6.7V33.347H441.8V28.04Z" transform="translate(-321.547 -27.745)" fill="#fff"></path></g><g id="Groupe_149" data-name="Groupe 149" transform="translate(143.228)"><path id="Trac&#xE9;_180" data-name="Trac&#xE9; 180" d="M530.869,20.9a2.781,2.781,0,0,1,0-2.32l-4.668-2.7v7.71Z" transform="translate(-526.201 -11.558)" fill="#ff0026"></path><path id="Trac&#xE9;_181" data-name="Trac&#xE9; 181" d="M533.869,5.389V0l-6.677,3.855,4.669,2.7A2.8,2.8,0,0,1,533.869,5.389Z" transform="translate(-526.922)" fill="#ff0026"></path><path id="Trac&#xE9;_182" data-name="Trac&#xE9; 182" d="M533.869,42.573V37.183a2.8,2.8,0,0,1-2.008-1.161l-4.669,2.7Z" transform="translate(-526.922 -26.217)" fill="#ff0026"></path><path id="Trac&#xE9;_183" data-name="Trac&#xE9; 183" d="M555.716,6.55l4.668-2.7L553.707,0V5.389A2.8,2.8,0,0,1,555.716,6.55Z" transform="translate(-546.22)" fill="#ff0026"></path><path id="Trac&#xE9;_184" data-name="Trac&#xE9; 184" d="M566.747,23.591v-7.71l-4.668,2.695a2.78,2.78,0,0,1,0,2.32Z" transform="translate(-552.313 -11.558)" fill="#ff0026"></path><path id="Trac&#xE9;_185" data-name="Trac&#xE9; 185" d="M555.716,36.022a2.8,2.8,0,0,1-2.009,1.161v5.389l6.677-3.855Z" transform="translate(-546.22 -26.217)" fill="#ff0026"></path></g></svg>